<svg width="19" height="21" viewBox="0 0 19 21" fill="none" xmlns="http://www.w3.org/2000/svg">
<path d="M14.4955 8.3394C14.3077 8.33935 14.179 8.20919 14.1592 8.01377C13.8042 5.11575 13.7151 5.11573 10.9848 4.53983C10.8067 4.50737 10.678 4.37674 10.6781 4.17067C10.6781 3.97526 10.8069 3.83452 10.985 3.80169C13.7156 3.39031 13.8144 3.29263 14.1613 0.340631C14.1812 0.145219 14.31 0.00401696 14.4978 0.00406913C14.6759 0.0041186 14.8046 0.145392 14.8244 0.351465C15.1499 3.26012 15.2883 3.24951 17.9987 3.80364C18.1768 3.84722 18.3055 3.97738 18.3055 4.17279C18.3054 4.38997 18.1767 4.50941 17.9593 4.54177C15.268 5.01845 15.1493 5.09436 14.8223 7.99219C14.8024 8.20936 14.6736 8.33945 14.4955 8.3394ZM7.78531 20.3525C7.52784 20.3524 7.34008 20.1458 7.29078 19.8527C6.28772 13.9915 5.92948 13.6332 0.466994 12.3513C0.190118 12.3188 0.00193409 12.0909 0.00201255 11.8084C0.002091 11.526 0.190399 11.3093 0.467295 11.2658C5.92948 10.0509 6.29546 9.69263 7.29524 3.76825C7.34471 3.47514 7.53259 3.27977 7.79005 3.27984C8.0471 3.27992 8.23487 3.47539 8.27446 3.76852C9.50188 9.69263 9.91763 10.0509 15.0982 11.2699C15.3852 11.3135 15.573 11.5307 15.5729 11.8128C15.5729 12.0952 15.385 12.323 15.0979 12.3553C9.87008 13.275 9.51184 13.9915 8.27 19.8529C8.23024 20.1461 8.04236 20.3525 7.78531 20.3525Z" fill="url(#paint0_linear_718_209)"/>
<defs>
<linearGradient id="paint0_linear_718_209" x1="5.33867" y1="14.1099" x2="16.779" y2="1.90683" gradientUnits="userSpaceOnUse">
<stop stop-color="#4D32F8"/>
<stop offset="1" stop-color="#32B0F8"/>
</linearGradient>
</defs>
</svg>
