<svg width="13" height="13" viewBox="0 0 13 13" fill="none" xmlns="http://www.w3.org/2000/svg">
<g clip-path="url(#clip0_493_91)">
<path fill-rule="evenodd" clip-rule="evenodd" d="M6.50016 2.16675C6.96329 2.16675 7.43833 2.17866 7.89875 2.19816L8.44258 2.22416L8.96312 2.25504L9.45062 2.28808L9.89587 2.32275C10.3791 2.35973 10.8337 2.56593 11.1799 2.90506C11.5261 3.24419 11.7416 3.69454 11.7885 4.17687L11.8101 4.40708L11.8507 4.9C11.8887 5.41079 11.9168 5.96762 11.9168 6.50008C11.9168 7.03254 11.8887 7.58937 11.8507 8.10017L11.8101 8.59308C11.8031 8.67216 11.796 8.74854 11.7885 8.82329C11.7415 9.30571 11.526 9.75612 11.1797 10.0953C10.8334 10.4344 10.3786 10.6406 9.89533 10.6774L9.45116 10.7115L8.96366 10.7451L8.44258 10.776L7.89875 10.802C7.43282 10.8222 6.96653 10.8327 6.50016 10.8334C6.0338 10.8327 5.5675 10.8222 5.10158 10.802L4.55775 10.776L4.0372 10.7451L3.5497 10.7115L3.10445 10.6774C2.62126 10.6404 2.16659 10.4342 1.82042 10.0951C1.47425 9.75597 1.25877 9.30562 1.21187 8.82329L1.1902 8.59308L1.14958 8.10017C1.10816 7.56778 1.08612 7.03407 1.0835 6.50008C1.0835 5.96762 1.11166 5.41079 1.14958 4.9L1.1902 4.40708C1.19725 4.328 1.20429 4.25162 1.21187 4.17687C1.25875 3.69463 1.47416 3.24435 1.82021 2.90523C2.16627 2.5661 2.62082 2.35985 3.10391 2.32275L3.54862 2.28808L4.03612 2.25504L4.5572 2.22416L5.10104 2.19816C5.56714 2.17792 6.03362 2.16745 6.50016 2.16675ZM5.41683 5.18654V7.81362C5.41683 8.06387 5.68766 8.21987 5.90433 8.09529L8.17933 6.78175C8.22883 6.75325 8.26995 6.71221 8.29854 6.66276C8.32714 6.61331 8.34219 6.5572 8.34219 6.50008C8.34219 6.44296 8.32714 6.38685 8.29854 6.3374C8.26995 6.28795 8.22883 6.24691 8.17933 6.21841L5.90433 4.90541C5.85491 4.87688 5.79884 4.86186 5.74178 4.86187C5.68471 4.86188 5.62865 4.87692 5.57924 4.90547C5.52983 4.93402 5.4888 4.97507 5.46029 5.02451C5.43178 5.07394 5.41679 5.13001 5.41683 5.18708V5.18654Z" fill="#646C9C"/>
</g>
<defs>
<clipPath id="clip0_493_91">
<rect width="13" height="13" fill="white"/>
</clipPath>
</defs>
</svg>
