<svg width="15" height="14" viewBox="0 0 15 14" fill="none" xmlns="http://www.w3.org/2000/svg">
<path d="M13.8453 6.07124L7.77863 0.678652C7.65562 0.570585 7.49748 0.510986 7.33374 0.510986C7.17 0.510986 7.01186 0.570585 6.88885 0.678652L0.822182 6.07124C0.719072 6.16246 0.646362 6.28305 0.613825 6.41681C0.581288 6.55057 0.590486 6.69109 0.640182 6.81947C0.689064 6.94615 0.775067 7.05512 0.886926 7.13209C0.998785 7.20907 1.13128 7.25047 1.26707 7.25087H1.94114V13.3175C1.94114 13.4963 2.01216 13.6678 2.13858 13.7942C2.26499 13.9206 2.43644 13.9916 2.61522 13.9916H12.0523C12.231 13.9916 12.4025 13.9206 12.5289 13.7942C12.6553 13.6678 12.7263 13.4963 12.7263 13.3175V7.25087H13.4004C13.5362 7.25047 13.6687 7.20907 13.7805 7.13209C13.8924 7.05512 13.9784 6.94615 14.0273 6.81947C14.077 6.69109 14.0862 6.55057 14.0536 6.41681C14.0211 6.28305 13.9484 6.16246 13.8453 6.07124ZM8.00781 12.6435H6.65966V10.6212C6.65966 10.4425 6.73068 10.271 6.8571 10.1446C6.98351 10.0182 7.15496 9.94717 7.33374 9.94717C7.51251 9.94717 7.68397 10.0182 7.81038 10.1446C7.93679 10.271 8.00781 10.4425 8.00781 10.6212V12.6435ZM11.3782 12.6435H9.35596V10.6212C9.35596 10.0849 9.14291 9.57056 8.76367 9.19132C8.38443 8.81208 7.87006 8.59902 7.33374 8.59902C6.79741 8.59902 6.28305 8.81208 5.90381 9.19132C5.52457 9.57056 5.31152 10.0849 5.31152 10.6212V12.6435H3.28929V7.25087H11.3782V12.6435ZM3.03989 5.90273L7.33374 2.08747L11.6276 5.90273H3.03989Z" fill="white"/>
</svg>
