<svg width="10" height="13" viewBox="0 0 10 13" fill="none" xmlns="http://www.w3.org/2000/svg">
<path d="M8.96908 0.352539C9.09125 0.352544 9.20928 0.396787 9.30135 0.477086C9.39342 0.557384 9.4533 0.668307 9.46992 0.789339L9.47464 0.858095V11.6433C9.4746 11.7714 9.42594 11.8947 9.33849 11.9883C9.25104 12.0819 9.13133 12.1388 9.00354 12.1475C8.87575 12.1562 8.7494 12.1161 8.65004 12.0353C8.55068 11.9545 8.4857 11.8389 8.46824 11.712L8.46352 11.6433V8.27291H6.94686C6.82469 8.2729 6.70666 8.22866 6.61459 8.14836C6.52251 8.06806 6.46264 7.95714 6.44602 7.83611L6.4413 7.76735V2.88032C6.4413 2.20991 6.70762 1.56696 7.18167 1.09291C7.65572 0.618858 8.29867 0.352539 8.96908 0.352539ZM4.92463 0.352539C5.0468 0.352544 5.16484 0.396787 5.25691 0.477086C5.34898 0.557384 5.40886 0.668307 5.42547 0.789339L5.43019 0.858095V3.55439C5.43019 4.87086 4.48649 5.96623 3.23945 6.2035V11.6433C3.23941 11.7714 3.19075 11.8947 3.1033 11.9883C3.01586 12.0819 2.89614 12.1388 2.76835 12.1475C2.64056 12.1562 2.51422 12.1161 2.41486 12.0353C2.31549 11.9545 2.25052 11.8389 2.23306 11.712L2.22834 11.6433V6.2035C1.63567 6.09019 1.09811 5.78144 0.701576 5.32663C0.305047 4.87181 0.0724498 4.29718 0.0409681 3.6946L0.0375977 3.55439V0.858095C0.0376369 0.730005 0.0862957 0.606705 0.173742 0.513109C0.261188 0.419513 0.380903 0.3626 0.508695 0.35387C0.636487 0.345139 0.762829 0.385242 0.862192 0.466075C0.961555 0.546908 1.02653 0.662445 1.04399 0.789339L1.04871 0.858095V3.55439C1.04871 4.30935 1.54483 4.9477 2.22834 5.16273V0.858095C2.22838 0.730005 2.27704 0.606705 2.36448 0.513109C2.45193 0.419513 2.57164 0.3626 2.69944 0.35387C2.82723 0.345139 2.95357 0.385242 3.05293 0.466075C3.1523 0.546908 3.21727 0.662445 3.23473 0.789339L3.23945 0.858095V5.16206C3.56112 5.06068 3.845 4.8652 4.05444 4.60084C4.26388 4.33649 4.38925 4.01542 4.41436 3.67909L4.41908 3.55439V0.858095C4.41908 0.724013 4.47234 0.595423 4.56715 0.500613C4.66196 0.405803 4.79055 0.352539 4.92463 0.352539ZM8.46352 7.2618V1.44993C8.18642 1.548 7.94375 1.72441 7.76498 1.95775C7.58621 2.19108 7.47903 2.4713 7.45646 2.76438L7.45241 2.88032V7.2618H8.46352Z" fill="#5776C8"/>
</svg>
