<svg width="13" height="12" viewBox="0 0 13 12" fill="none" xmlns="http://www.w3.org/2000/svg">
<path fill-rule="evenodd" clip-rule="evenodd" d="M2.12978 1.44692C2.12978 1.11491 2.26167 0.796495 2.49644 0.561727C2.73121 0.326959 3.04962 0.195068 3.38163 0.195068H9.64089C9.9729 0.195068 10.2913 0.326959 10.5261 0.561727C10.7609 0.796495 10.8927 1.11491 10.8927 1.44692V2.07285H11.5187C11.6847 2.07285 11.8439 2.13879 11.9613 2.25618C12.0787 2.37356 12.1446 2.53277 12.1446 2.69877C12.1446 2.86478 12.0787 3.02398 11.9613 3.14137C11.8439 3.25875 11.6847 3.3247 11.5187 3.3247V10.2099C11.6847 10.2099 11.8439 10.2758 11.9613 10.3932C12.0787 10.5106 12.1446 10.6698 12.1446 10.8358C12.1446 11.0018 12.0787 11.161 11.9613 11.2784C11.8439 11.3958 11.6847 11.4617 11.5187 11.4617H1.50386C1.33785 11.4617 1.17864 11.3958 1.06126 11.2784C0.943875 11.161 0.87793 11.0018 0.87793 10.8358C0.87793 10.6698 0.943875 10.5106 1.06126 10.3932C1.17864 10.2758 1.33785 10.2099 1.50386 10.2099V3.3247C1.33785 3.3247 1.17864 3.25875 1.06126 3.14137C0.943875 3.02398 0.87793 2.86478 0.87793 2.69877C0.87793 2.53277 0.943875 2.37356 1.06126 2.25618C1.17864 2.13879 1.33785 2.07285 1.50386 2.07285H2.12978V1.44692ZM9.64089 1.44692V2.07285H3.38163V1.44692H9.64089ZM10.2668 3.3247V10.2099H8.07608V8.64507C8.07608 8.23005 7.91121 7.83204 7.61775 7.53858C7.32429 7.24512 6.92628 7.08025 6.51126 7.08025C6.09625 7.08025 5.69823 7.24512 5.40477 7.53858C5.11131 7.83204 4.94645 8.23005 4.94645 8.64507V10.2099H2.75571V3.3247H10.2668ZM6.51126 8.3321C6.59427 8.3321 6.67387 8.36508 6.73256 8.42377C6.79125 8.48246 6.82423 8.56207 6.82423 8.64507V10.2099H6.1983V8.64507C6.1983 8.56207 6.23127 8.48246 6.28996 8.42377C6.34866 8.36508 6.42826 8.3321 6.51126 8.3321ZM4.00756 6.45433C4.17357 6.45433 4.33277 6.52027 4.45016 6.63766C4.56754 6.75504 4.63349 6.91425 4.63349 7.08025V7.70618C4.63349 7.87219 4.56754 8.03139 4.45016 8.14878C4.33277 8.26616 4.17357 8.3321 4.00756 8.3321C3.84155 8.3321 3.68235 8.26616 3.56496 8.14878C3.44758 8.03139 3.38163 7.87219 3.38163 7.70618V7.08025C3.38163 6.91425 3.44758 6.75504 3.56496 6.63766C3.68235 6.52027 3.84155 6.45433 4.00756 6.45433ZM9.01497 6.45433C9.16828 6.45435 9.31625 6.51063 9.43081 6.61251C9.54538 6.71438 9.61857 6.85476 9.63651 7.00702L9.64089 7.08025V7.70618C9.64072 7.86572 9.57963 8.01916 9.47011 8.13517C9.36059 8.25118 9.21091 8.32099 9.05165 8.33034C8.89239 8.33968 8.73557 8.28787 8.61323 8.18547C8.49089 8.08308 8.41226 7.93783 8.39342 7.77941L8.38904 7.70618V7.08025C8.38904 6.91425 8.45499 6.75504 8.57237 6.63766C8.68975 6.52027 8.84896 6.45433 9.01497 6.45433ZM4.00756 3.95062C4.16087 3.95064 4.30884 4.00693 4.42341 4.1088C4.53797 4.21068 4.61117 4.35106 4.6291 4.50332L4.63349 4.57655V5.20248C4.63331 5.36201 4.57222 5.51546 4.4627 5.63147C4.35318 5.74747 4.2035 5.81728 4.04424 5.82663C3.88498 5.83598 3.72816 5.78416 3.60582 5.68177C3.48348 5.57937 3.40486 5.43413 3.38601 5.27571L3.38163 5.20248V4.57655C3.38163 4.41054 3.44758 4.25134 3.56496 4.13395C3.68235 4.01657 3.84155 3.95062 4.00756 3.95062ZM6.51126 3.95062C6.66457 3.95064 6.81254 4.00693 6.92711 4.1088C7.04168 4.21068 7.11487 4.35106 7.13281 4.50332L7.13719 4.57655V5.20248C7.13701 5.36201 7.07592 5.51546 6.96641 5.63147C6.85689 5.74747 6.70721 5.81728 6.54795 5.82663C6.38868 5.83598 6.23186 5.78416 6.10952 5.68177C5.98718 5.57937 5.90856 5.43413 5.88972 5.27571L5.88534 5.20248V4.57655C5.88534 4.41054 5.95128 4.25134 6.06867 4.13395C6.18605 4.01657 6.34526 3.95062 6.51126 3.95062ZM9.01497 3.95062C9.18097 3.95062 9.34018 4.01657 9.45756 4.13395C9.57495 4.25134 9.64089 4.41054 9.64089 4.57655V5.20248C9.64089 5.36848 9.57495 5.52769 9.45756 5.64507C9.34018 5.76246 9.18097 5.8284 9.01497 5.8284C8.84896 5.8284 8.68975 5.76246 8.57237 5.64507C8.45499 5.52769 8.38904 5.36848 8.38904 5.20248V4.57655C8.38904 4.41054 8.45499 4.25134 8.57237 4.13395C8.68975 4.01657 8.84896 3.95062 9.01497 3.95062Z" fill="#5776C8"/>
</svg>
