<svg width="20" height="20" viewBox="0 0 20 20" fill="none" xmlns="http://www.w3.org/2000/svg">
<path d="M14.6973 11.3888C14.1623 11.3892 13.6355 11.5199 13.1623 11.7697C12.6891 12.0195 12.2837 12.3807 11.9811 12.8224L7.37586 10.7407C7.70295 9.94995 7.70423 9.06178 7.3794 8.27013L11.9783 6.17782C12.4268 6.82716 13.0929 7.29407 13.8558 7.49387C14.6187 7.69367 15.4278 7.61312 16.1365 7.26683C16.8451 6.92054 17.4063 6.33145 17.7183 5.60642C18.0303 4.88138 18.0723 4.06842 17.8368 3.31501C17.6013 2.5616 17.1039 1.91763 16.4348 1.49992C15.7656 1.08221 14.9691 0.918418 14.1897 1.03826C13.4102 1.15811 12.6995 1.55365 12.1865 2.15314C11.6734 2.75263 11.3919 3.51636 11.3932 4.30579C11.3962 4.49264 11.4151 4.67889 11.4498 4.86252L6.56079 7.08657C6.09124 6.64616 5.50341 6.35266 4.86952 6.24211C4.23563 6.13156 3.58328 6.20879 2.99263 6.4643C2.40198 6.71981 1.89874 7.14248 1.54475 7.68038C1.19076 8.21827 1.00142 8.84798 1.00001 9.49212C0.998594 10.1363 1.18516 10.7668 1.53679 11.3062C1.88842 11.8457 2.38979 12.2706 2.97932 12.5287C3.56884 12.7868 4.22084 12.8669 4.85521 12.7591C5.48959 12.6514 6.0787 12.3604 6.55018 11.9221L11.4519 14.1377C11.4178 14.3211 11.3991 14.5071 11.396 14.6937C11.3959 15.3475 11.5894 15.9867 11.9522 16.5304C12.315 17.0742 12.8307 17.498 13.434 17.7482C14.0374 17.9985 14.7014 18.064 15.342 17.9365C15.9826 17.809 16.571 17.4941 17.0329 17.0318C17.4947 16.5695 17.8092 15.9804 17.9366 15.3391C18.064 14.6978 17.9985 14.0331 17.7485 13.429C17.4985 12.825 17.0752 12.3087 16.532 11.9456C15.9889 11.5824 15.3504 11.3886 14.6973 11.3888ZM14.6973 2.41677C15.0705 2.41663 15.4354 2.5273 15.7458 2.73478C16.0562 2.94227 16.2982 3.23724 16.4411 3.5824C16.584 3.92757 16.6215 4.30741 16.5488 4.67389C16.4761 5.04037 16.2964 5.37703 16.0325 5.64129C15.7687 5.90554 15.4324 6.08553 15.0664 6.15847C14.7003 6.23142 14.3209 6.19405 13.9761 6.0511C13.6312 5.90814 13.3365 5.66602 13.1291 5.35536C12.9217 5.04469 12.811 4.67944 12.811 4.30579C12.8114 3.80503 13.0102 3.32488 13.3639 2.97072C13.7175 2.61656 14.1971 2.41733 14.6973 2.41677ZM4.32078 11.3888C3.94755 11.3889 3.58265 11.2782 3.27225 11.0707C2.96185 10.8633 2.71988 10.5683 2.57695 10.2231C2.43403 9.87796 2.39656 9.49812 2.46929 9.13164C2.54202 8.76515 2.72168 8.4285 2.98554 8.16424C3.24941 7.89998 3.58563 7.72 3.95169 7.64706C4.31774 7.57411 4.69718 7.61148 5.04202 7.75443C5.38686 7.89739 5.6816 8.13951 5.88897 8.45017C6.09635 8.76084 6.20703 9.12609 6.20703 9.49973C6.20647 10.0004 6.00759 10.4805 5.65399 10.8346C5.30039 11.1887 4.82094 11.388 4.32078 11.3888ZM14.6973 16.5827C14.3241 16.5827 13.9593 16.4719 13.649 16.2643C13.3386 16.0568 13.0968 15.7617 12.954 15.4166C12.8111 15.0714 12.7738 14.6916 12.8466 14.3251C12.9194 13.9587 13.0991 13.6221 13.363 13.3579C13.6269 13.0937 13.9631 12.9138 14.3292 12.8409C14.6952 12.7681 15.0746 12.8055 15.4194 12.9484C15.7642 13.0914 16.0589 13.3335 16.2662 13.6442C16.4736 13.9548 16.5842 14.3201 16.5842 14.6937C16.5839 15.1946 16.385 15.6748 16.0312 16.029C15.6774 16.3832 15.1976 16.5823 14.6973 16.5827Z" fill="black"/>
</svg>
